<?xml version="1.0" encoding="UTF-8" standalone="no"?>
<!-- Created with Inkscape (http://www.inkscape.org/) -->

<svg
   xmlns:dc="http://purl.org/dc/elements/1.1/"
   xmlns:cc="http://creativecommons.org/ns#"
   xmlns:rdf="http://www.w3.org/1999/02/22-rdf-syntax-ns#"
   xmlns:svg="http://www.w3.org/2000/svg"
   xmlns="http://www.w3.org/2000/svg"
   xmlns:sodipodi="http://sodipodi.sourceforge.net/DTD/sodipodi-0.dtd"
   xmlns:inkscape="http://www.inkscape.org/namespaces/inkscape"
   width="263.94098mm"
   height="151.67653mm"
   viewBox="0 0 263.94098 151.67653"
   version="1.1"
   id="svg2524"
   inkscape:version="0.92.5 (2060ec1f9f, 2020-04-08)"
   sodipodi:docname="KINDLE-2024.svg">
  <defs
     id="defs2518" />
  <sodipodi:namedview
     id="base"
     pagecolor="#ffffff"
     bordercolor="#666666"
     borderopacity="1.0"
     inkscape:pageopacity="0.0"
     inkscape:pageshadow="2"
     inkscape:zoom="1.4605459"
     inkscape:cx="498.78609"
     inkscape:cy="286.63282"
     inkscape:document-units="mm"
     inkscape:current-layer="layer1"
     showgrid="false"
     inkscape:snap-global="false"
     inkscape:window-width="1920"
     inkscape:window-height="1009"
     inkscape:window-x="-8"
     inkscape:window-y="-8"
     inkscape:window-maximized="1" />
  <metadata
     id="metadata2521">
    <rdf:RDF>
      <cc:Work
         rdf:about="">
        <dc:format>image/svg+xml</dc:format>
        <dc:type
           rdf:resource="http://purl.org/dc/dcmitype/StillImage" />
        <dc:title></dc:title>
      </cc:Work>
    </rdf:RDF>
  </metadata>
  <g
     inkscape:label="Layer 1"
     inkscape:groupmode="layer"
     id="layer1"
     transform="translate(25.927763,-69.546137)">
    <path
       style="fill:#0f141a;fill-opacity:1;fill-rule:nonzero;stroke:none;stroke-width:5.11043167"
       inkscape:connector-curvature="0"
       d="m 9.0230157,173.67099 c -0.8963221,0.70773 -1.0850468,1.88684 -0.5660878,3.53821 0.4717316,1.46245 1.5803301,3.27833 3.3257841,5.44851 7.028808,8.6803 15.402254,15.89771 25.120201,21.65309 9.71796,5.7554 20.120137,10.00087 31.206089,12.73689 11.132957,2.78346 22.501829,4.17497 34.106618,4.17497 14.86007,0 29.0124,-2.16975 42.45701,-6.51012 13.44459,-4.29293 24.67202,-10.33123 33.68268,-18.1149 3.16038,-2.78301 4.7408,-5.00021 4.7408,-6.65157 0,-0.61328 -0.2594,-1.22655 -0.77823,-1.83983 -0.70773,-0.70728 -1.55692,-0.94319 -2.54756,-0.70728 -0.99065,0.23546 -2.38215,0.82524 -4.17497,1.76887 -8.63286,4.52884 -19.15254,8.13754 -31.55951,10.82655 -12.35951,2.73601 -25.26179,4.10402 -38.70639,4.10402 -16.652453,0 -32.73906,-2.26419 -48.259407,-6.79303 -15.520334,-4.52883 -29.271799,-11.60478 -41.253949,-21.22828 -1.745368,-1.36801 -3.160821,-2.24114 -4.245696,-2.6185 -1.037819,-0.37738 -1.886963,-0.30641 -2.5473823,0.2124 z"
       id="Path" />
    <path
       style="fill:#0f141a;fill-opacity:1;fill-rule:nonzero;stroke:none;stroke-width:5.11043167"
       inkscape:connector-curvature="0"
       d="m 166.2521,177.21318 c -0.99064,0.94363 -1.25004,1.93428 -0.77823,2.97237 0.33036,0.75472 0.96714,1.1791 1.91078,1.27355 0.94319,0.14146 2.28769,0.047 4.03306,-0.28291 2.83047,-0.61327 5.7789,-1.03809 8.84527,-1.274 3.06638,-0.18846 5.73188,-0.14146 7.99607,0.14145 2.26465,0.33037 3.67966,0.89663 4.24593,1.69838 0.84919,1.274 0.54233,3.96256 -0.92013,8.06703 -1.41501,4.10401 -3.34929,8.09008 -5.80239,11.95864 -0.94363,1.55647 -1.50946,2.78302 -1.69837,3.67965 -0.18845,0.89619 0.0475,1.65092 0.70773,2.26419 0.42436,0.42437 0.89618,0.63679 1.415,0.63679 1.36846,0 3.34974,-1.20306 5.9443,-3.60871 4.67029,-4.05701 7.94864,-8.86877 9.83591,-14.43525 1.03765,-2.87791 1.67441,-5.89684 1.91033,-9.05766 0.23591,-3.16039 -0.11801,-5.42503 -1.06159,-6.79305 -0.89619,-1.32098 -2.87749,-2.40609 -5.94385,-3.25481 -3.01893,-0.8492 -6.06181,-1.27401 -9.12817,-1.27401 -5.99131,0 -11.67574,1.41545 -17.05332,4.24592 -1.98128,1.08509 -3.46724,2.09924 -4.45833,3.04243 z"
       id="path6" />
    <path
       inkscape:connector-curvature="0"
       id="path3123"
       style="fill:#0f141a;fill-opacity:1;fill-rule:nonzero;stroke:none;stroke-width:0.26458332"
       d="m 22.630073,150.62435 c 1.002343,0 1.559195,-1.00234 1.113716,-1.89331 L 6.2585102,114.65146 22.073221,93.82505 c 0.779597,-1.002331 0.222746,-2.004675 -1.002343,-2.004675 H 7.4835993 c -0.8909705,0 -1.5591953,0.445479 -2.1160595,1.113704 L -10.447159,114.87421 H -10.89265 V 74.669212 c 0,-1.113713 -0.779598,-2.004682 -1.781941,-2.004682 h -11.582604 c -1.002331,0 -1.670568,0.890969 -1.670568,2.004682 v 74.061828 c 0,1.11372 0.668237,1.89331 1.670568,1.89331 h 11.582604 c 1.002343,0 1.781941,-0.77959 1.781941,-1.89331 v -11.69397 l 6.7936454,-9.6893 h 0.5568519 l 11.2484853,22.16287 c 0.3341186,0.66823 1.1137162,1.11371 1.781941,1.11371 z" />
    <path
       inkscape:connector-curvature="0"
       id="path3131"
       style="fill:#0f141a;fill-opacity:1;fill-rule:nonzero;stroke:none;stroke-width:0.26458332"
       d="m 35.279955,69.546137 c 4.788958,0 8.798319,3.118393 8.798319,8.686952 0,5.345816 -4.009361,8.575581 -8.798319,8.575581 -4.677598,0 -8.686959,-3.229765 -8.686959,-8.575581 0,-5.568559 4.009361,-8.686952 8.686959,-8.686952 z m -7.46187,79.184903 V 93.490944 c 0,-1.002344 0.89097,-1.670569 2.004674,-1.670569 h 11.248498 c 1.002343,0 1.781941,0.668225 1.781941,1.670569 v 55.240096 c 0,1.11372 -0.779598,1.89331 -1.781941,1.89331 H 29.822759 c -1.113704,0 -2.004674,-0.77959 -2.004674,-1.89331 z" />
    <path
       inkscape:connector-curvature="0"
       id="path3139"
       style="fill:#0f141a;fill-opacity:1;fill-rule:nonzero;stroke:none;stroke-width:0.26458332"
       d="m 81.763977,90.483914 c 10.803006,0 17.485271,8.909692 17.485271,23.276576 v 34.97055 c 0,1.11372 -0.66823,1.89331 -1.781934,1.89331 h -11.35987 c -1.113704,0 -1.893302,-0.77959 -1.893302,-1.89331 v -33.85683 c 0,-6.79364 -2.895657,-10.58026 -8.130095,-10.58026 -5.679929,0 -8.798332,4.45484 -8.798332,12.58493 v 31.85216 c 0,1.11372 -0.779597,1.89331 -1.893301,1.89331 H 54.032556 c -1.113716,0 -1.781941,-0.77959 -1.781941,-1.89331 V 93.602316 c 0,-1.113716 0.779597,-1.781941 1.781941,-1.781941 H 63.4991 c 1.002343,0 1.670568,0.668225 1.893314,1.781941 l 1.447822,7.016384 h 0.556852 c 2.561539,-6.570905 7.684616,-10.134786 14.366889,-10.134786 z" />
    <path
       inkscape:connector-curvature="0"
       id="path3147"
       style="fill:#0f141a;fill-opacity:1;fill-rule:nonzero;stroke:none;stroke-width:0.26458332"
       d="m 106.2412,121.22236 c 0,-18.59898 8.13009,-30.738446 20.15818,-30.738446 6.34815,0 11.02575,3.00703 14.47825,9.466556 h 0.55686 V 74.669212 c 0,-1.113713 0.66822,-2.004682 1.78194,-2.004682 h 11.35986 c 1.1137,0 1.78194,0.890969 1.78194,2.004682 v 74.061828 c 0,1.11372 -0.66824,1.89331 -1.78194,1.89331 h -9.35518 c -1.00235,0 -1.67057,-0.66822 -2.00468,-1.89331 l -1.44783,-6.79363 h -0.44548 c -2.56154,5.90266 -8.46422,9.91203 -14.92374,9.91203 -12.02809,0 -20.15818,-12.25083 -20.15818,-30.62708 z m 25.504,18.04213 c 6.34815,0 9.91202,-6.68227 9.91202,-18.04213 0,-11.69397 -3.56387,-18.37624 -9.91202,-18.37624 -6.34817,0 -10.02341,6.68227 -10.02341,18.37624 0,11.58261 3.67524,18.04213 10.02341,18.04213 z" />
    <path
       inkscape:connector-curvature="0"
       id="path3155"
       style="fill:#0f141a;fill-opacity:1;fill-rule:nonzero;stroke:none;stroke-width:0.26458332"
       d="m 167.43286,72.66453 h 11.58261 c 1.00233,0 1.78192,0.890969 1.78192,2.004682 v 74.061828 c 0,1.11372 -0.77959,1.89331 -1.78192,1.89331 h -11.58261 c -1.00234,0 -1.67057,-0.77959 -1.67057,-1.89331 V 74.669212 c 0,-1.113713 0.66823,-2.004682 1.67057,-2.004682 z" />
    <path
       inkscape:connector-curvature="0"
       id="path3163"
       style="fill:#0f141a;fill-opacity:1;fill-rule:nonzero;stroke:none;stroke-width:0.26458332"
       d="m 213.73429,90.483914 c 14.36689,0 24.27892,12.584946 24.27892,30.292956 v 2.89566 c 0,1.22508 -0.7796,1.89331 -1.78194,1.89331 h -32.40902 c 0.66824,9.57792 3.898,14.47825 9.91204,14.47825 4.34348,0 7.79599,-2.00468 9.02106,-7.46187 0.22275,-1.22507 0.89097,-1.67057 2.00469,-1.44782 l 10.58026,2.33879 c 1.11372,0.22275 1.67057,1.00235 1.22509,2.22742 -3.56388,10.4689 -11.80535,16.14883 -22.8311,16.14883 -15.25785,0 -25.61536,-12.25083 -25.61536,-30.29297 0,-18.04213 10.58026,-31.072556 25.61536,-31.072556 z m 9.02106,25.169896 c -0.7796,-8.79833 -3.78661,-13.36455 -9.02106,-13.36455 -5.12307,0 -8.68695,4.78896 -9.80067,13.36455 z" />
  </g>
</svg>
