<?xml version="1.0" encoding="UTF-8" standalone="no"?>
<!-- Created with Inkscape (http://www.inkscape.org/) -->

<svg
   xmlns:dc="http://purl.org/dc/elements/1.1/"
   xmlns:cc="http://creativecommons.org/ns#"
   xmlns:rdf="http://www.w3.org/1999/02/22-rdf-syntax-ns#"
   xmlns:svg="http://www.w3.org/2000/svg"
   xmlns="http://www.w3.org/2000/svg"
   xmlns:sodipodi="http://sodipodi.sourceforge.net/DTD/sodipodi-0.dtd"
   xmlns:inkscape="http://www.inkscape.org/namespaces/inkscape"
   width="269.56747mm"
   height="153.53215mm"
   viewBox="0 0 269.56747 153.53215"
   version="1.1"
   id="svg3985"
   inkscape:version="0.92.5 (2060ec1f9f, 2020-04-08)"
   sodipodi:docname="FIRE-TV-2024.svg">
  <defs
     id="defs3979" />
  <sodipodi:namedview
     id="base"
     pagecolor="#ffffff"
     bordercolor="#666666"
     borderopacity="1.0"
     inkscape:pageopacity="0.0"
     inkscape:pageshadow="2"
     inkscape:zoom="1.430061"
     inkscape:cx="509.41883"
     inkscape:cy="290.1395"
     inkscape:document-units="mm"
     inkscape:current-layer="layer1"
     showgrid="false"
     inkscape:snap-global="false"
     inkscape:window-width="1920"
     inkscape:window-height="1009"
     inkscape:window-x="-8"
     inkscape:window-y="-8"
     inkscape:window-maximized="1" />
  <metadata
     id="metadata3982">
    <rdf:RDF>
      <cc:Work
         rdf:about="">
        <dc:format>image/svg+xml</dc:format>
        <dc:type
           rdf:resource="http://purl.org/dc/dcmitype/StillImage" />
        <dc:title></dc:title>
      </cc:Work>
    </rdf:RDF>
  </metadata>
  <g
     inkscape:label="Layer 1"
     inkscape:groupmode="layer"
     id="layer1"
     transform="translate(25.081097,-73.976773)">
    <path
       style="fill:#fc4c01;fill-opacity:1;fill-rule:nonzero;stroke:none;stroke-width:5.11043167"
       inkscape:connector-curvature="0"
       d="m 13.622223,179.54187 c -0.904156,0.71392 -1.094524,1.90331 -0.571038,3.56911 0.475853,1.47523 1.594132,3.30697 3.354837,5.49611 7.090204,8.75613 15.5368,16.03657 25.339636,21.84224 9.802836,5.80566 20.295883,10.08823 31.478672,12.84815 11.230216,2.80776 22.698392,4.21144 34.40455,4.21144 14.98987,0 29.26583,-2.1887 42.82788,-6.56699 13.56204,-4.33044 24.88754,-10.42147 33.9769,-18.27314 3.18801,-2.80733 4.78222,-5.0439 4.78222,-6.70968 0,-0.61863 -0.26167,-1.23726 -0.78502,-1.85589 -0.71393,-0.71347 -1.57053,-0.95144 -2.56982,-0.71347 -0.99929,0.23752 -2.40296,0.83245 -4.21144,1.78434 -8.70827,4.56838 -19.31984,8.2086 -31.83518,10.92111 -12.46748,2.75991 -25.48247,4.13987 -39.04451,4.13987 -16.797916,0 -33.025038,-2.28397 -48.680956,-6.85238 -15.655919,-4.56838 -29.527503,-11.70615 -41.614323,-21.4137 -1.760607,-1.37997 -3.18843,-2.26072 -4.282788,-2.64139 -1.046877,-0.38065 -1.90344,-0.30908 -2.56962,0.21427 z"
       id="Path" />
    <path
       style="fill:#fc4c01;fill-opacity:1;fill-rule:nonzero;stroke:none;stroke-width:5.11043167"
       inkscape:connector-curvature="0"
       d="m 172.22474,183.11501 c -0.99929,0.95187 -1.26098,1.95117 -0.78503,2.99832 0.33325,0.76132 0.97559,1.1894 1.92746,1.28467 0.95143,0.14271 2.30768,0.0475 4.06831,-0.28537 2.85518,-0.61863 5.82937,-1.04715 8.92253,-1.28513 3.09316,-0.19011 5.78195,-0.14269 8.06593,0.14269 2.28441,0.33325 3.71179,0.90446 4.283,1.7132 0.85661,1.28514 0.54707,3.99718 -0.92817,8.13751 -1.42736,4.13986 -3.37855,8.16075 -5.85307,12.06309 -0.95188,1.57007 -1.52264,2.80733 -1.71321,3.71181 -0.1901,0.904 0.0479,1.66534 0.71391,2.28397 0.42807,0.42808 0.90402,0.64234 1.42737,0.64234 1.38041,0 3.37899,-1.21356 5.99622,-3.64022 4.71109,-4.09246 8.01807,-8.94625 9.92183,-14.56136 1.04671,-2.90305 1.68904,-5.94835 1.92701,-9.13679 0.23798,-3.18799 -0.11905,-5.47241 -1.07086,-6.85237 -0.90402,-1.33254 -2.90262,-2.4271 -5.99576,-3.28327 -3.04531,-0.85659 -6.11476,-1.28512 -9.20792,-1.28512 -6.04364,0 -11.77772,1.42782 -17.20228,4.28302 -1.99859,1.09457 -3.49753,2.11756 -4.49727,3.06901 z"
       id="path6" />
    <path
       inkscape:connector-curvature="0"
       id="path4584"
       style="fill:#fc4c01;fill-opacity:1;fill-rule:nonzero;stroke:none;stroke-width:0.26458332"
       d="m 15.727881,79.74203 c 0.113098,-0.678265 -0.113097,-1.243488 -0.678265,-1.58262 -3.165243,-1.469576 -6.8956957,-2.260884 -11.0783438,-2.260884 -11.3044136,0 -18.7653462,7.347874 -18.7653462,18.313162 v 2.373936 l -8.81745,1.35653 c -0.791307,0.113098 -1.469573,0.791308 -1.469573,1.582615 v 7.234831 c 0,1.0174 0.791307,1.80872 1.808712,1.80872 h 8.365269 v 45.89596 c 0,1.01739 0.904363,1.8087 1.921754,1.8087 h 11.5305113 c 0.90436302,0 1.80871224,-0.79131 1.80871224,-1.8087 V 108.56832 H 12.449596 c 1.017391,0 1.921755,-0.79132 1.921755,-1.80872 v -8.365264 c 0,-1.017405 -0.904364,-1.808712 -1.921755,-1.808712 H 0.46690346 v -1.582629 c 0,-4.069592 2.37393574,-6.895695 5.99134644,-6.895695 1.8087123,0 3.6174111,0.678265 5.4261231,1.582628 0.339139,0.226084 0.678265,0.339126 1.017405,0.339126 0.678265,0 1.243475,-0.339126 1.356531,-1.017391 z" />
    <path
       inkscape:connector-curvature="0"
       id="path4592"
       style="fill:#fc4c01;fill-opacity:1;fill-rule:nonzero;stroke:none;stroke-width:0.26458332"
       d="m 27.987905,73.976773 c 4.860899,0 8.930492,3.165239 8.930492,8.817446 0,5.426123 -4.069593,8.704407 -8.930492,8.704407 -4.747858,0 -8.81745,-3.278284 -8.81745,-8.704407 0,-5.652207 4.069592,-8.817446 8.81745,-8.817446 z M 20.413944,154.35124 V 98.28128 c 0,-1.017391 0.904349,-1.695656 2.034796,-1.695656 h 11.417469 c 1.017391,0 1.808713,0.678265 1.808713,1.695656 v 56.06996 c 0,1.13043 -0.791322,1.92174 -1.808713,1.92174 H 22.44874 c -1.130447,0 -2.034796,-0.79131 -2.034796,-1.92174 z" />
    <path
       inkscape:connector-curvature="0"
       id="path4600"
       style="fill:#fc4c01;fill-opacity:1;fill-rule:nonzero;stroke:none;stroke-width:0.26458332"
       d="m 76.720283,111.28138 c 1.35653,0.79131 2.713061,0.45217 2.939145,-0.67827 l 2.939159,-11.643564 c 0.226084,-0.90435 -0.226097,-1.808699 -1.017405,-2.147838 -2.147838,-0.90435 -4.521773,-1.356531 -7.121779,-1.356531 -6.330486,0 -11.643567,3.730466 -14.017489,9.947893 H 59.87669 L 58.407118,98.28128 C 58.18102,97.150847 57.502755,96.585624 56.372322,96.585624 h -9.15659 c -1.130447,0 -2.034796,0.678265 -2.034796,1.695656 v 56.06996 c 0,1.13043 0.904349,1.92174 2.034796,1.92174 h 11.41747 c 1.017404,0 1.808712,-0.79131 1.808712,-1.92174 v -33.12198 c 0,-7.687 3.165229,-11.98268 8.81745,-11.98268 2.600019,0 5.200039,0.67827 7.460919,2.0348 z" />
    <path
       inkscape:connector-curvature="0"
       id="path4608"
       style="fill:#fc4c01;fill-opacity:1;fill-rule:nonzero;stroke:none;stroke-width:0.26458332"
       d="m 107.7866,95.229093 c 14.58272,0 24.64366,12.773997 24.64366,30.748027 v 2.93916 c 0,1.24349 -0.79133,1.92175 -1.80872,1.92175 H 97.725666 c 0.678265,9.7218 3.956554,14.69574 10.060934,14.69574 4.40874,0 7.91311,-2.03479 9.15659,-7.57396 0.22609,-1.24349 0.90435,-1.69566 2.0348,-1.46957 l 10.7392,2.37393 c 1.13044,0.22609 1.69566,1.0174 1.24348,2.26088 -3.61741,10.62617 -11.98268,16.39142 -23.17407,16.39142 -15.487061,0 -26.000181,-12.43487 -26.000181,-30.74803 0,-18.31318 10.739204,-31.539347 26.000181,-31.539347 z m 9.15659,25.547997 c -0.79132,-8.9305 -3.8435,-13.56532 -9.15659,-13.56532 -5.20003,0 -8.817445,4.86092 -9.947892,13.56532 z" />
    <path
       inkscape:connector-curvature="0"
       id="path4618"
       style="fill:#fc4c01;fill-opacity:1;fill-rule:nonzero;stroke:none;stroke-width:0.26458332"
       d="m 191.88183,154.57732 c 0.67827,-0.45218 1.24349,-1.69567 1.01741,-2.71306 l -1.46959,-7.68702 c -0.22608,-1.46957 -1.46957,-2.03479 -2.93914,-1.24347 -1.58262,0.7913 -3.39133,1.35653 -4.97394,1.35653 -3.73047,0 -6.10439,-2.71306 -6.10439,-6.78266 v -28.82628 h 12.09573 c 1.01739,0 1.92174,-0.90436 1.92174,-1.92176 v -8.252222 c 0,-1.017405 -0.90435,-1.921754 -1.92174,-1.921754 H 177.41218 V 84.037707 c 0,-1.017391 -0.90437,-1.921754 -1.92176,-1.921754 h -9.60877 c -1.13043,0 -2.03479,0.904363 -2.14784,1.921754 l -1.58261,12.547917 -8.13918,1.695656 c -0.90437,0.226098 -1.80872,1.243489 -1.80872,2.14785 v 6.33047 c 0,1.0174 0.90435,1.92176 1.80872,1.92176 h 8.13918 v 27.24366 c 0,14.01748 6.44351,21.59145 18.53925,21.59145 4.40873,0 8.25224,-1.0174 11.19138,-2.93915 z" />
    <path
       inkscape:connector-curvature="0"
       id="path4626"
       style="fill:#fc4c01;fill-opacity:1;fill-rule:nonzero;stroke:none;stroke-width:0.26458332"
       d="m 230.81266,96.585624 c -0.90435,0 -1.69565,0.678265 -1.92174,1.582614 l -9.26963,42.391592 h -0.79131 l -9.26963,-42.391592 c -0.22609,-0.904349 -1.0174,-1.582614 -1.92175,-1.582614 h -11.53051 c -1.46957,0 -2.48698,1.130447 -2.0348,2.600019 l 15.37402,55.617757 c 0.22609,0.79131 1.13043,1.46958 2.0348,1.46958 h 15.48706 c 0.90435,0 1.8087,-0.67827 2.0348,-1.46958 l 15.37402,-55.617757 c 0.45216,-1.469572 -0.56523,-2.600019 -2.0348,-2.600019 z" />
  </g>
</svg>
